<svg xmlns="http://www.w3.org/2000/svg" height="480" version="1.0" viewBox="0 0 512 512" width="640"><defs><clipPath clipPathUnits="userSpaceOnUse" id="a"><path d="M-85.333 0h682.67v512h-682.67z" fill-opacity=".67"/></clipPath></defs><g clip-path="url(#a)" fill-rule="evenodd"><path d="M-85.333 0h682.67v512h-682.67z" fill="#009"/><path d="M-85.333 0l682.67 512V0h-682.67z" fill="#fc0"/><path d="M-21.46 75.087L-45.857 57.36l-24.397 17.726 9.319-28.68-24.397-17.726h30.155L-45.857 0l9.319 28.68h30.155L-30.78 46.406zm51.553 36.89L5.696 129.703l9.319-28.68-24.397-17.726h30.155l9.32-28.68 9.319 28.68h30.155L45.17 101.022l9.32 28.68zm51.546 72.336l9.319-28.68-24.397-17.726h30.155l9.32-28.68 9.319 28.68h30.155l-24.397 17.725 9.32 28.68-24.397-17.725zm85.267 25.939l-24.397-17.725h30.155l9.32-28.68 9.319 28.68h30.155l-24.397 17.725 9.32 28.68-24.397-17.725-24.397 17.726zm51.552 36.885h30.155l9.32-28.68 9.319 28.68h30.155l-24.397 17.725 9.32 28.68-24.397-17.725-24.397 17.726 9.319-28.68zm106.105 54.61l9.32-28.68 9.319 28.68h30.155l-24.397 17.725 9.32 28.68-24.397-17.725-24.397 17.726 9.319-28.68-24.397-17.726zm85.26 25.94l9.319 28.68h30.155L424.9 374.092l9.32 28.68-24.397-17.725-24.397 17.726 9.319-28.68-24.397-17.726h30.155zm75.95 54.61l9.319 28.68h30.155l-24.397 17.725 9.32 28.68-24.397-17.725-24.397 17.726 9.319-28.68-24.397-17.726h30.155zm85.269 83.3h30.155L576.8 483.322l9.32 28.68-24.397-17.725-24.397 17.726 9.319-28.68-24.397-17.726h30.155l9.32-28.68z" fill="#fff"/></g></svg>