<svg xmlns="http://www.w3.org/2000/svg" viewBox="0 0 640 480"><defs><clipPath clipPathUnits="userSpaceOnUse" id="a"><path d="M0 0h682.6v512H0z" fill-opacity=".67"/></clipPath></defs><g clip-path="url(#a)" fill-rule="evenodd" transform="scale(.93759 .9375)"><path d="M.001 0h1024v340.11H.001z" fill="#b20000"/><path d="M.001 340.11h1024V512H.001z" fill="#429f00"/><path d="M.001 0h113.37v512H.001z" fill="#fff"/><g fill="#b20000" stroke-width="1pt"><path d="M5.394 8.682h5.398v8.679H5.394zm16.196 0h16.196v8.679H21.59zM26.983 0h5.398v8.68h-5.398zm26.998 0h5.398v8.68h-5.398zM75.57 8.682h16.197v8.679H75.57zM80.98 0h5.398v8.68H80.98z"/><path d="M16.196 17.36h10.798v8.68H16.196zm16.196 0H43.19v8.68H32.392zm37.785 0h10.798v8.68H70.177zm16.196 0h10.798v8.68H86.373zm-75.586 8.68h10.798v8.678H10.787zm26.999 0h10.797v8.678H37.786zm26.998 0H75.58v8.678H64.784zm26.983 0h10.797v8.678H91.767zm10.802-17.358h5.398v8.679h-5.398zM5.394 34.718h10.798v8.678H5.394zm37.786 0h10.797v8.678H43.179zm53.995 0h10.798v8.678H97.175zM10.787 60.75h10.798v8.679H10.787zm5.409 8.679h10.798v8.678H16.196zm21.59-8.679h10.797v8.679H37.786zm-5.394 8.679H43.19v8.678H32.392zM21.59 78.107h16.196v8.678H21.59z"/><path d="M26.983 86.784h5.398v8.679h-5.398zm37.801-26.032H75.58v8.678H64.784z"/><path d="M70.177 69.429h10.798v8.678H70.177zm21.59-8.679h10.797v8.679H91.767zm-5.394 8.679h10.798v8.678H86.373zM75.57 78.107h16.197v8.678H75.57z"/><path d="M80.98 86.784h5.398v8.679H80.98zm-26.999-8.677h5.398v8.678h-5.398zM0 78.107h5.398v8.678H0zm107.963 0h5.398v8.678h-5.398zm-80.98 43.39h5.398v8.678h-5.398z"/><path d="M21.59 130.174h16.196v8.678H21.59zm-5.394 8.678H43.19v8.678H16.196zm64.784-17.355h5.398v8.678H80.98z"/><path d="M75.57 130.174h16.197v8.678H75.57zm-5.393 8.678h26.994v8.678H70.177zm5.393 43.39h26.994v8.678H75.571zM64.784 147.53h37.79v8.679h-37.79zm-53.997 0h37.79v8.679h-37.79zm5.409 43.39h16.196v8.678H16.196zm-5.409-8.678h26.994v8.678H10.787zm75.586-17.356h26.994v8.678H86.373zM80.98 190.92h16.195v8.678H80.98z"/><path d="M21.59 199.597h5.398v8.679H21.59zm64.783 0h5.398v8.679h-5.398zM0 164.886h26.994v8.678H0zm48.588 17.356h16.196v8.678H48.588zm5.393 8.678h5.398v8.678h-5.398zm-16.195-26.034h37.79v8.678h-37.79zM59.375 34.718h10.798v8.678H59.375z"/><path d="M48.588 43.395h16.196v8.678H48.588z"/><path d="M43.18 52.073h10.797v8.679H43.179zm16.195 0h10.798v8.679H59.375zM0 43.395h10.798v8.678H0z"/><path d="M5.394 52.073h10.798v8.679H5.394zm97.175-8.678h10.798v8.678h-10.798zM97.175 52.073h10.798v8.679H97.175zM0 130.174h5.398v8.678H0zm107.963 0h5.398v8.678h-5.398zm-59.375 69.423h16.196v8.679H48.588zm-5.408 8.679h10.797v8.678H43.179zm16.195 0h10.798v8.678H59.375zm-21.589 8.678h10.797v8.678H37.786zm26.998 0H75.58v8.678H64.784z"/><path d="M32.392 225.631H43.19v8.678H32.392zm37.785 0h10.798v8.678H70.177zm-43.194 8.679h10.798v8.678H26.983zm48.587 0h10.8v8.678h-10.8z"/><path d="M16.196 242.987h16.196v8.678H16.196zm64.784 0h16.195v8.678H80.98z"/><path d="M91.767 234.31h10.797v8.678H91.767zm5.408-8.679h10.798v8.678H97.175z"/><path d="M102.569 216.954h10.798v8.678h-10.798zM10.787 234.31h10.798v8.678H10.787zm-5.393-8.679h10.798v8.678H5.394z"/><path d="M0 216.954h10.798v8.678H0zm21.59 34.711h5.398v8.678H21.59zm64.783 0h5.398v8.678h-5.398zm-32.392-26.034h5.398v8.678h-5.398zm-16.195 26.034h5.398v8.678h-5.398zm32.391 0h5.398v8.678h-5.398zm-16.196 0h5.398v8.678h-5.398zm-53.981 0h5.398v8.678H0zm107.963 0h5.398v8.678h-5.398zM53.981 130.174h5.398v8.678h-5.398zM26.983 43.395h5.398v8.678h-5.398zm53.997 0h5.398v8.678H80.98zm-32.392 60.746h16.196v8.678H48.588z"/><path d="M37.786 112.818H53.98v8.679H37.786zm5.394 8.679h5.397v8.678H43.18z"/><path d="M32.392 104.141H43.19v8.678H32.392zm5.394-8.678H53.98v8.678H37.786zM43.18 86.784h5.397v8.679H43.18zm16.195 8.679H75.57v8.678H59.375zM64.784 86.784h5.398v8.679h-5.398zm5.393 17.357h10.798v8.678H70.177z"/><path d="M59.375 112.818H75.57v8.679H59.375zm5.409 8.679h5.398v8.678h-5.398zm21.589-17.356h10.798v8.678H86.373zm5.394-8.678h16.196v8.678H91.767zm10.802 8.678h10.798v8.678h-10.798z"/><path d="M91.767 112.818h16.196v8.679H91.767zm5.408 8.679h5.399v8.678h-5.399zm0-34.713h5.399v8.679h-5.399zM0 104.141h10.798v8.678H0zm5.394-8.678H21.59v8.678H5.394zm10.802 8.678h10.798v8.678H16.196z"/><path d="M5.394 112.818H21.59v8.679H5.394zm5.393 8.679h5.398v8.678h-5.398zm0-34.713h5.398v8.679h-5.398zm-5.393 69.424h21.594v8.678H5.394zm26.998 0h21.594v8.678H32.392zm26.983 0h21.594v8.678H59.375zm26.998 0h21.594v8.678H86.373zM43.18 173.563h26.993v8.679H43.179zm-37.786 0h26.993v8.679H5.394zm75.586 0h26.993v8.679H80.98zm26.983 34.713h5.398v8.678h-5.398zM0 208.276h5.398v8.678H0zm5.394 295.051h5.398v-8.678H5.394zm16.196 0h16.196v-8.678H21.59z"/><path d="M26.983 511.997h5.398v-8.678h-5.398zm26.998 0h5.398v-8.678h-5.398zm21.589-8.67h16.197v-8.678H75.57z"/><path d="M80.98 511.997h5.398v-8.678H80.98zm-64.784-17.352h10.798v-8.678H16.196zm16.196 0H43.19v-8.678H32.392zm37.785 0h10.798v-8.678H70.177zm16.196 0h10.798v-8.678H86.373zm-48.587-8.682h10.797v-8.678H37.786zm26.998 0H75.58v-8.678H64.784zm26.983 0h10.797v-8.678H91.767zm10.802 17.364h5.398v-8.678h-5.398zM5.394 477.293h10.798v-8.678H5.394z"/><path d="M43.18 477.293h10.797v-8.678H43.179zm53.995 0h10.798v-8.678H97.175zM10.787 451.26h10.798v-8.68H10.787zm5.409-8.683h10.798V433.9H16.196zm21.59 8.683h10.797v-8.68H37.786zm-5.394-8.683H43.19V433.9H32.392zm-10.802-8.682h16.196v-8.678H21.59z"/><path d="M26.983 425.225h5.398v-8.678h-5.398zm37.801 26.035H75.58v-8.68H64.784zm5.393-8.683h10.798V433.9H70.177zm21.59 8.683h10.797v-8.68H91.767zm-5.394-8.683h10.798V433.9H86.373zm-10.803-8.682h16.197v-8.678H75.57z"/><path d="M80.98 425.225h5.398v-8.678H80.98zm-26.999 8.67h5.398v-8.678h-5.398zm-53.981 0h5.398v-8.678H0zm107.963 0h5.398v-8.678h-5.398zm-80.98-43.385h5.398v-8.679h-5.398z"/><path d="M21.59 381.84h16.196v-8.679H21.59zm-5.394-8.682H43.19v-8.679H16.196zM80.98 390.51h5.398v-8.679H80.98z"/><path d="M75.57 381.84h16.197v-8.679H75.57zm-5.393-8.682h26.994v-8.679H70.177zm5.393-43.386h26.994v-8.679H75.571zm-10.786 34.703h37.79v-8.678h-37.79zm-53.997 0h37.79v-8.678h-37.79zm5.409-43.385h16.196v-8.682H16.196zm-5.409 8.682h26.994v-8.679H10.787zm75.586 17.352h26.994v-8.679H86.373zM80.98 321.09h16.195v-8.679H80.98zM0 347.124h26.994v-8.679H0zm48.588-17.352h16.196v-8.679H48.588zm5.393-8.682h5.398v-8.679h-5.398zm-16.195 26.034h37.79v-8.679h-37.79zm21.589 130.169h10.798v-8.678H59.375zm-10.787-8.682h16.196v-8.678H48.588zm-5.408-8.681h10.797v-8.68H43.179zm16.195 0h10.798v-8.68H59.375zM0 468.611h10.798v-8.678H0zm5.394-8.681h10.798v-8.68H5.394zm97.175 8.681h10.798v-8.678h-10.798zm-5.394-8.681h10.798v-8.68H97.175zM0 381.84h5.398v-8.679H0zm107.963 0h5.398v-8.679h-5.398zM43.18 303.738h10.797v-8.679H43.179zm16.195 0h10.798v-8.679H59.375zm-21.589-8.682h10.797v-8.679H37.786zm26.998 0H75.58v-8.679H64.784zm-32.392-8.682H43.19v-8.679H32.392zm37.785 0h10.798v-8.679H70.177z"/><path d="M26.983 277.704h10.798v-8.679H26.983zm48.587 0h10.8v-8.679h-10.8zm-59.374-8.682h16.196v-8.679H16.196zm64.784 0h16.195v-8.679H80.98zm10.787 8.682h10.797v-8.679H91.767z"/><path d="M97.175 286.374h10.798v-8.679H97.175zm5.394 8.682h10.798v-8.679h-10.798zm-91.782-17.352h10.798v-8.679H10.787z"/><path d="M5.394 286.374h10.798v-8.679H5.394zM0 295.056h10.798v-8.679H0zm21.59-34.713h5.398v-8.678H21.59zm32.391 26.031h5.398v-8.679h-5.398zm0 95.466h5.398v-8.679h-5.398zm-26.998 86.771h5.398v-8.678h-5.398zm53.997 0h5.398v-8.678H80.98zm-32.392-60.738h16.196v-8.678H48.588zm-10.802-8.682H53.98v-8.678H37.786zm5.394-8.681h5.397v-8.679H43.18zm-10.788 17.363H43.19v-8.678H32.392z"/><path d="M37.786 416.543H53.98v-8.678H37.786zm5.394 8.682h5.397v-8.678H43.18zm16.195-8.682H75.57v-8.678H59.375zm5.409 8.682h5.398v-8.678h-5.398z"/><path d="M70.177 407.873h10.798v-8.678H70.177zm-10.802-8.682H75.57v-8.678H59.375zm5.409-8.681h5.398v-8.679h-5.398zm21.589 17.363h10.798v-8.678H86.373z"/><path d="M91.767 416.543h16.196v-8.678H91.767z"/><path d="M102.569 407.873h10.798v-8.678h-10.798zm-10.802-8.682h16.196v-8.678H91.767zm5.408-8.681h5.399v-8.679h-5.399zm0 34.715h5.399v-8.678h-5.399zM0 407.873h10.798v-8.678H0z"/><path d="M5.394 416.543H21.59v-8.678H5.394z"/><path d="M16.196 407.873h10.798v-8.678H16.196zm-10.802-8.682H21.59v-8.678H5.394zm5.393-8.681h5.398v-8.679h-5.398zm0 34.715h5.398v-8.678h-5.398zm-5.393-69.419h21.594v-8.679H5.394zm26.998 0h21.594v-8.679H32.392zm26.983 0h21.594v-8.679H59.375zm26.998 0h21.594v-8.679H86.373zM43.18 338.442h26.993v-8.679H43.179zm-37.786 0h26.993v-8.679H5.394zm75.586 0h26.993v-8.679H80.98zm26.983-34.704h5.398v-8.679h-5.398zM0 303.738h5.398v-8.679H0zm48.588-43.395h5.398v8.679h-5.398zm10.787 0h5.398v8.679h-5.398zm0-17.356h5.398v8.678h-5.398zm-10.787 0h5.398v8.678h-5.398zM10.787 477.293h10.798v8.679H10.787zm75.586-164.885h5.398v-8.679h-5.398zm-64.783 0h5.398v-8.679H21.59zm26.995-8.674H64.78v8.677H48.585z"/></g></g></svg>