<svg xmlns="http://www.w3.org/2000/svg" viewBox="0 0 640 480"><defs><clipPath clipPathUnits="userSpaceOnUse" id="a"><path d="M-123.43 0h682.67v512h-682.67z" fill-opacity=".67"/></clipPath></defs><g clip-path="url(#a)" fill-rule="evenodd" transform="translate(115.72) scale(.9375)"><path d="M-123.43 233.05H723.1v205.97h-846.53z" fill="#fff"/><path d="M-122.76 0h845.95v256.64h-845.95zm.24 385.87H729.6V512h-852.12z" fill="#081873"/><path d="M-122.52 302.55h845.95v39.649h-845.95z" fill="#de3929"/><path d="M130.92 399.168l6.65 20.468h21.522l-17.412 12.65 6.651 20.469-17.411-12.65-17.411 12.65 6.65-20.469-17.41-12.65h21.52zm185.99-148.67l6.65 20.468h21.522l-17.412 12.65 6.651 20.469-17.411-12.65-17.411 12.65 6.65-20.469-17.41-12.65h21.52zm-228.639 84.95l6.65 20.468h21.522l-17.412 12.65 6.651 20.469-17.411-12.65-17.411 12.65 6.65-20.469-17.41-12.65h21.52zm228.639-5.99l6.65 20.468h21.522l-17.412 12.65 6.651 20.469-17.411-12.65-17.411 12.65 6.65-20.469-17.41-12.65h21.52zm-47.09-141.28l6.65 20.468h21.522l-17.412 12.65 6.651 20.469-17.411-12.65-17.411 12.65 6.65-20.469-17.41-12.65h21.52zm-71.08-24.75l6.65 20.468h21.522l-17.412 12.65 6.651 20.469-17.411-12.65-17.411 12.65 6.65-20.469-17.41-12.65h21.52zm-71.09 23.36l6.65 20.468h21.522l-17.412 12.65 6.651 20.469-17.411-12.65-17.411 12.65 6.65-20.469-17.41-12.65h21.52zm-41.466 63.71l6.65 20.468h21.522l-17.412 12.65 6.651 20.469-17.411-12.65-17.411 12.65 6.65-20.469-17.41-12.65h21.52zm112.556 169.91l6.65 20.468h21.522l-17.412 12.65 6.651 20.469-17.411-12.65-17.411 12.65 6.65-20.469-17.41-12.65h21.52zm75.52-21.24l6.65 20.468h21.522l-17.412 12.65 6.651 20.469-17.411-12.65-17.411 12.65 6.65-20.469-17.41-12.65h21.52z" fill="#ffce08"/></g></svg>