<svg xmlns="http://www.w3.org/2000/svg" version="1.0" viewBox="0 0 640 480"><defs><clipPath clipPathUnits="userSpaceOnUse" id="a"><path d="M-19.451 0h682.67v512h-682.67z" fill-opacity=".67"/></clipPath></defs><g clip-path="url(#a)" fill-rule="evenodd" stroke-width="1pt" transform="translate(18.235) scale(.9375)"><path d="M-105.62 325.66h249.35V512h-249.35z" fill="#fff"/><path d="M143.57 0h149.94v512H143.57z" fill="#0062da"/><path d="M-105.62 186.18h897.67v139.64h-897.67z" fill="#0062da"/><path d="M-105.62.003h249.35v186.34h-249.35zM293.35 325.66h498.7V512h-498.7zm0-325.658h498.7v186.34h-498.7zM-105.62 325.66h249.35V512h-249.35z" fill="#fff"/><path d="M143.57 0h149.94v512H143.57z" fill="#0062da"/><path d="M-105.62.003h249.35v186.34h-249.35zM293.35 325.66h498.7V512h-498.7zm0-325.658h498.7v186.34h-498.7z" fill="#fff"/></g></svg>