<svg xmlns="http://www.w3.org/2000/svg" viewBox="0 0 640 480"><defs><clipPath clipPathUnits="userSpaceOnUse" id="a"><path d="M-81.333 0h682.67v512h-682.67z" fill-opacity=".67"/></clipPath></defs><g clip-path="url(#a)" fill-rule="evenodd" stroke-width="1pt" transform="translate(76.25) scale(.9375)"><path d="M-252 0H772v512H-252z" fill="#6797d6"/><path d="M259.787 122.985l-32.44 22.214L239.78 109.3l-32.475-22.177 40.122.038 12.366-35.92 12.366 35.92 40.122-.027-32.48 22.166 12.428 35.905zm0 267.067l-32.44-22.214 12.433 35.899-32.475 22.177 40.122-.038 12.366 35.92 12.366-35.92 40.122.027-32.48-22.166 12.428-35.905zM103.845 275.367l-24.53 30.73 1.395-37.967-37.54-11.713 38.38-11.695 1.324-37.966 22.328 30.735 38.361-11.756-24.58 30.694 22.382 30.702zm311.8 0l24.53 30.73-1.395-37.967 37.54-11.713-38.38-11.695-1.324-37.966-22.328 30.735-38.361-11.756 24.58 30.694-22.382 30.702z" fill="#fff"/></g></svg>