<svg xmlns="http://www.w3.org/2000/svg" viewBox="0 0 640 480"><defs><clipPath clipPathUnits="userSpaceOnUse" id="a"><path d="M-85.241 0h682.67v512h-682.67z" fill-opacity=".67"/></clipPath></defs><g clip-path="url(#a)" transform="translate(79.914) scale(.9375)"><path d="M-254.55 0h1021.8v510.88h-1021.8z" fill="#fff" fill-rule="evenodd"/><path d="M405.2 175.1zm-71.913-62.795l-12.743 64.988 88.979-.909-9.558-64.072" fill="#a11011"/><path d="M276.15 77.584h27.309v6.827H276.15zm-32.77 0h26.398v6.827H243.38zm-33.68-.455h26.398v6.372H209.7z" fill="#a11011" fill-rule="evenodd"/><path d="M301.84 99.559zm-91.904-16.391v16.749h93.536V83.526l-93.536-.358m11.394 23.672l-10.926 69.082 94.438.458-12.743-69.082m2.962 66.43z" fill="#a11011"/><path d="M-256 384.54H768.2V512H-256z" fill="#d61517" fill-rule="evenodd"/><path d="M82.674 175.2h347.88v26.356H82.674z" fill="#a11011" fill-rule="evenodd"/><path d="M95.911 198.65l-7.36 131.63-37.823.455v21.157h413.49v-21.157l-37.822.455-7.357-131.92-323.12-.628z" fill="#a11011"/><path d="M204.56 234.3v21.755h5.338V234.3h-5.338m8.008 0v21.755h42.707V234.3h-42.707m45.377 0v21.755h40.038V234.3h-40.038m42.707 0v21.755h8.007V234.3h-8.007zm66.318 21.71zm-38.317-21.736v22.21h38.997v-21.736l-38.997-.475M316.67 306.19v23.548h29.361V306.19H316.67m32.031 0v14.718h5.338V306.19h-5.338m37.369 0v14.718h5.338V306.19h-5.338m8.008 0v23.548h29.36V306.19h-29.36zm-74.748-23.96v21.3h5.338v-21.3h-5.338m8.008 0v21.3h18.684v-21.3h-18.684zm66.732 0v21.3h19.135v-21.3H394.07m21.869 0v21.3h5.467v-21.3h-5.467zm-98.029-80.34v5.78h102.92v-5.78H317.91zm-216.35 80.79v21.3h18.041v-21.3H101.56zm65.63-.45v22.21h18.684v-22.21H167.19m21.354 0v22.21h5.338v-22.21h-5.338zm14.666-79.88v5.325h106.1v-5.325h-106.1zm-107.867.46v5.325h97.002v-5.325H95.343z" fill="#d61517"/><path d="M313.08 200.53c-10.186.754 1.348 96.039 1.367 125.75 0 0 12.182-119.51-1.367-125.75z" fill="#fff"/><path d="M84.444 184.62v14.61h344.33v-14.61H84.444z" fill="#d61517"/><path d="M196.57 200.98c-10.186.767 1.348 97.777 1.367 128.03 0 0 12.182-121.67-1.367-128.03z" fill="#fff"/><path d="M90.901 282.68v21.3h8.216v-21.3h-8.216zm-.208 23.05v24.031h29.361l-.16-24.001-29.201-.03m28.849 23.517zM454.7 349.85zM51.55 331.678v18.569h410.32v-18.172l-410.32-.397m115.61-25.488v23.226h28.451v-23.203l-28.451-.023m27.954 22.73zm6.636-23.19v23.548h29.361l-.16-23.519-29.201-.03m28.849 23.046zm48.981-22.585v23.548h32.547l-.16-23.519-32.388-.03m31.98 23.046zM139.48 256.45zm-38.208-22.626v23.121h38.887v-22.626l-38.887-.494m-3.588 22.635zm-3.806-22.181v22.665h3.874v-22.181l-3.874-.484M183.51 256.9zm-40.476-22.626v23.121h41.195v-22.626l-41.195-.494m47.936 22.635zm-4.7-22.181v22.665h4.783v-22.181l-4.783-.484M346.23 279.7zm-27.06-20.845v21.3h27.541V259.31l-27.541-.455m101.7 20.405zm-27.507-19.954v20.39h27.996v-19.954l-27.996-.436m-3.213 20.404zm-39.92-20.399v20.845h40.629v-20.399l-40.629-.446" fill="#d61517"/><path d="M315.23 183.92zm-4.7-9.264v9.466h4.783v-9.264l-4.783-.202" fill="#fff"/><path d="M325.23 255.57zm-5.147-21.29v21.755h5.238v-21.29l-5.238-.465m88.407 21.74zm-37.052-21.29v21.755h37.71v-21.29l-37.71-.465m48.422 21.29zm-7.383-21.29v21.755h7.514v-21.29l-7.514-.465m-69.367-2.84zm-23.482-21.736v22.21h23.9v-21.736l-23.9-.475M389.21 231.9zm-41.894-21.29v21.755h42.639v-21.29l-42.639-.465m70.404 21.28zm-25.271-21.736v22.21h25.72v-21.736l-25.72-.475M201.75 281.15v21.755h12.066v-21.611l-12.066-.144m11.855 21.29zm2.705-20.83v21.755h14.93v-21.611l-14.93-.144m14.669 21.29zm48.601-20.83v21.755h19.348v-21.774l-19.348.019m19.011 21.29zm12.449 0zm-9.62-21.29v21.755h9.79v-21.29l-9.79-.465M92.612 201.44v4.415h102.92v-4.415H92.612zm105.588 0v4.415h113.84v-4.415H198.2zm116.44-.46v4.415h108.91v-4.415H314.64zm-195.52 79.16zm-27.06-21.29v21.755h27.541v-21.29l-27.541-.465m100.38 21.29zm-24.824-21.29v21.755h25.265v-21.29l-25.265-.465m-44.686.46v21.755h42.183l.161-21.611-42.344-.144m41.447 21.29zm39.193-22.66v21.755h27.996l.16-21.611-28.156-.144m27.507 21.29zm45.693 0zm-43.159-21.29v21.755h43.926l-.16-21.451-43.766-.305m46.419.461v21.755h28.451l.16-21.774-28.61.019m27.953 21.29zm-75.564-48.7zm-28.402-21.29v21.755h28.906v-21.29l-28.906-.465m73.742 21.73zm-42.789-21.736v22.21h43.549v-21.736l-43.549-.475m71.699 21.737zm-25.271-21.736v22.21h25.72v-21.736l-25.72-.475" fill="#d61517"/><path d="M186.73 182.38zM113 119.585l-10.926 64.988 88.979-.909-10.014-65.439" fill="#a11011"/><path d="M220.62 123.84l-2.718 10.65h38.052v-10.65H220.62m38.052 0v10.65h35.334v-10.65h-35.334zM217.9 137.15v10.65h13.503v-10.65H217.9m16.204 0v10.65h43.21v-10.65h-43.21m45.91 0v10.65h16.204v-10.65h-16.204zM223.3 110.53l-2.722 10.65h10.887v-10.65H223.3m10.887 0v10.65h43.548v-10.65h-43.548m46.27 0v10.65h10.886v-10.65h-10.887zM209.9 86.565v5.325h45.832v-5.325H209.9m48.528 0v5.325h43.136v-5.325h-43.136zM209.9 94.553v5.325h21.354v-5.325H209.9m24.023 0v5.325h42.707v-5.325h-42.707m45.377 0v5.325h21.354v-5.325H279.3zm-34.7-15.975v5.325h24.023v-5.325H244.6zM84.444 177.09v5.325h21.354v-5.325H84.444zm322.976 0v5.325h21.354v-5.325H407.42zm-279.99 5.57zm-20.352-4.364v4.46h20.714v-4.365l-20.714-.095m65.912 4.834zm-17.669-3.735v3.817h17.983v-3.735l-17.983-.081" fill="#d61517"/><path d="M203.25 184.34zm-5.147-10.6v10.832h5.238v-10.6l-5.238-.232" fill="#fff"/><path d="M124.29 176.09zm-17.669-13.088v13.374h17.983v-13.088l-17.983-.286M134.91 176.1zm-9.172-12.643v12.919h9.335v-12.643l-9.335-.276m61.392 13.963zm-15.88-14.87v15.195h16.162v-14.87l-16.162-.325m-3.09 13.63zm-12.379-12.98v13.264h12.599v-12.98l-12.599-.284" fill="#d61517"/><path d="M192.98 181.7zm-19.905-6.591v6.735h20.258v-6.591l-20.258-.144m121.985-1.379zm-74.187-66.43l-11.383-7.384h93.534l-10.47 8.293" fill="#a11011"/><path d="M210.92 78.578v5.325h24.023v-5.325H210.92zm65.99.455v5.325h25.388v-5.325H276.91z" fill="#d61517"/><g fill="#d61517"><path d="M288.207 108.076zm-66.875-1.692v1.73h68.05v-1.693l-68.05-.037"/><path d="M291.718 107.166zm-74.031-1.692v1.729h75.333v-1.692l-75.333-.037"/><path d="M294.834 105.8zm-77.61-1.692v1.73h78.974v-1.693l-78.974-.037"/><path d="M294.834 105.8zm-77.61-1.692v1.73h78.974v-1.693l-78.974-.037m79.843-.128zm-80.741-1.693v1.73h82.16v-1.693l-82.16-.037"/></g><path d="M243.12 182.68zm-15.88-3.474v3.55h16.162v-3.474l-16.162-.076m55.97 3.474zm-13.644-3.474v3.55h13.887v-3.474l-13.887-.076M117.39 231.88zm-21.694-22.181v22.665h22.079v-22.181l-22.079-.484M242.86 177.45zm-30.19-13.718v14.018h30.727v-13.718l-30.727-.3m89.9 13.718zm-25.61-13.718v14.018h26.065v-13.718l-26.065-.3m-3.65 13.718zm-7.383-13.718v14.018h7.514v-13.718l-7.514-.3" fill="#d61517"/><path d="M226.71 182.14zm-16.774-7.037v7.19h17.072v-7.036l-17.072-.154" fill="#a11011"/><path d="M175.2 177.09v5.78h21.354v-5.78H175.2m29.361 0v5.78h21.354v-5.78h-21.354z" fill="#d61517"/><path d="M304.02 182.15zm-20.352-6.591v6.735h20.714v-6.591l-20.714-.144" fill="#a11011"/><path d="M165.23 231.89zm-44.578-21.736v22.21h45.369v-21.736l-45.369-.475M191.1 231.89zm-23.035-21.736v22.21h23.444v-21.736l-23.444-.475m86.915-48.593zm-40.029-11.936v12.197h40.74v-11.936l-40.74-.26m83.259 12.385zm-40.029-11.936v12.197h40.74v-11.936l-40.74-.26" fill="#d61517"/><path d="M168.74 88.962h23.667v6.827H168.74zm-34.59-.455h26.398v7.737H134.15zm-29.13.455h20.937v6.827H105.02z" fill="#a11011" fill-rule="evenodd"/><path d="M189.57 109.24zm-76.616 10.801l-8.146-11.473 87.616.455-10.497 9.576" fill="#a11011"/><path d="M105.8 102.54v5.325h18.684v-5.325H105.8m21.354 0v5.325h42.707v-5.325h-42.707m45.377 0v5.325h18.684v-5.325h-18.684zM105.8 90.138v4.681h18.684v-4.681H105.8m29.361 0v4.681h24.023v-4.681h-24.023zm34.699.455v4.038h21.354v-4.038H169.86z" fill="#d61517"/><path d="M105.02 95.79h87.387v13.654H105.02z" fill="#a11011" fill-rule="evenodd"/><path d="M142.29 160.22zm-33.845-10.416v10.643h34.446v-10.416l-34.446-.228m76.445 10.417zm-39.788-10.416v10.643h40.495v-10.416l-40.495-.228m1.538-48.603zm-40.476-3.919v4.005h41.195v-3.92l-41.195-.085M124.8 147.01zm-14.539-11.046v11.287h14.797v-11.046l-14.797-.241m56.959 11.076zm-39.288-9.786v10h39.986v-9.786l-39.986-.214m55.618 10.216zm-12.75-11.046v11.287h12.976v-11.046l-12.976-.241m-25.77-1.674zm-32.95-9.786v10h33.536v-9.786l-33.536-.214m69.74 9.786zm-33.321-9.786v10h33.913v-9.786l-33.913-.214m23.031-2.374zm-48.973-3.92v4.006H172.4v-3.92l-49.843-.085m57.903 3.919zm-6.936-3.92v4.006h7.06v-3.92l-7.06-.085m-52.704 3.919zm-7.83-3.92v4.006h7.97v-3.92l-7.97-.085m77.8-17.471zm-40.553-3.919v4.005h41.273v-3.92l-41.273-.085M126.53 109.81zm-19.905-5.593v5.715h20.258v-5.592l-20.258-.123m60.135 4.953zm-35.263-5.147v5.26h35.89v-5.148l-35.89-.112m59.203 5.157zm-19.796-4.963v5.071h20.148v-4.962l-20.148-.109" fill="#d61517"/><g fill="#d61517"><path d="M178.967 116.536zm-66.875-1.505v1.538h68.05v-1.505l-68.05-.033"/><path d="M182.478 115.727zm-74.031-1.506v1.538h75.333v-1.505l-75.333-.032"/><path d="M185.594 114.512zm-77.61-1.505v1.538h78.974v-1.505l-78.974-.033"/><path d="M185.594 114.512zm-77.61-1.505v1.538h78.974v-1.505l-78.974-.033m79.843-.115zm-80.741-1.505v1.538h82.16v-1.505l-82.16-.033"/></g><path d="M354.19 182.67zm-14.986-3.919v4.005h15.252v-3.92l-15.252-.085m65.366 3.459zm-22.588-3.919v4.005h22.99v-3.92l-22.99-.085m24.908-1.721zm-20.167-12.305v12.574h20.525v-12.305l-20.525-.269m-2.833 12.295zm-8.243-12.751v13.029h8.39v-12.751l-8.39-.279M340.5 176.99zm-16.775-13.642v13.94h17.073v-13.642l-17.073-.298m30.535 13.642zm-10.591-13.826v14.128h10.779v-13.826l-10.779-.302" fill="#d61517"/><path d="M338.66 183.03zm-17.669-7.928v8.101h17.983v-7.927l-17.983-.174" fill="#a11011"/><path d="M285.54 177.09v5.78h23.613v-5.78H285.54m31.484 0v5.78h20.99v-5.78h-20.99zm-18.774-15.08zm-38.132-11.936v12.197h38.809v-11.936l-38.809-.26" fill="#d61517"/><path d="M387.66 88.852h23.667v6.827H387.66zm-34.59-.455h26.398v7.737H353.07zm-29.13.455h20.937v6.827H323.94z" fill="#a11011" fill-rule="evenodd"/><path d="M408.49 109.13zm-76.616 10.801l-8.146-11.473 87.617.455-10.497 9.576" fill="#a11011"/><path d="M324.72 102.43v5.325h18.684v-5.325H324.72m21.354 0v5.325h42.707v-5.325h-42.707m45.377 0v5.325h18.684v-5.325h-18.684zM324.72 90.027v4.038h18.684v-4.038H324.72m29.361 0v4.038h24.023v-4.038h-24.023zm34.699.456v3.394h21.354v-3.394H388.78z" fill="#d61517"/><path d="M323.94 95.679h87.387v13.654H323.94z" fill="#a11011" fill-rule="evenodd"/><path d="M361.83 160.1zm-35.372-11.046v11.287h36v-11.046l-36-.241M403.84 160.1zm-38.055-11.046v11.287h38.731v-11.046l-38.731-.241m-2.745-47.964zm-37.946-3.919v4.005h38.62v-3.92l-38.62-.085M343.73 146.9zm-14.539-11.046v11.287h14.797v-11.046l-14.797-.241M386.16 146.9zm-38.655-11.046v11.287h39.342v-11.046l-39.342-.241m54.965 11.496zm-12.75-11.046v11.287h12.976v-11.046l-12.976-.241m-25.13-2.914zm-33.583-7.896v8.068h34.179v-7.896l-34.179-.172m69.743 7.896zm-32.688-7.896v8.068h33.269v-7.896l-33.269-.172m22.388-3.014zm-48.973-3.92v4.006h49.843v-3.92l-49.843-.085m57.913 3.919zm-6.936-3.92v4.006h7.06v-3.92l-7.06-.085m-52.704 3.919zm-7.83-3.92v4.006h7.97v-3.92l-7.97-.085m77.77-17.471zm-41.818-3.919v4.005h42.56v-3.92l-42.56-.085M344.19 108.4zm-18.64-6.223v6.359h18.971v-6.223l-18.971-.136m58.83 6.233zm-36.528-5.777v5.903h37.177v-5.777l-37.177-.126m61.738 5.777zm-21.694-5.593v5.715h22.079v-5.592l-22.079-.123" fill="#d61517"/><g fill="#d61517"><path d="M397.895 116.425zm-66.875-1.505v1.538h68.05v-1.505l-68.05-.033"/><path d="M401.406 115.616zm-74.031-1.506v1.538h75.333v-1.505l-75.333-.032"/><path d="M404.522 114.401zm-77.61-1.505v1.538h78.974v-1.505l-78.974-.033"/><path d="M404.522 114.401zm-77.61-1.505v1.538h78.974v-1.505l-78.974-.033m79.843-.115zm-80.741-1.505v1.538h82.16v-1.505l-82.16-.033"/></g><g fill="#d61517"><path d="M397.895 115.162zm-66.875-.383v.391h68.05v-.383l-68.05-.008"/><path d="M401.406 114.956zm-74.031-.384v.392h75.333v-.383l-75.333-.008"/><path d="M404.522 114.646zm-77.61-.383v.392h78.974v-.383l-78.974-.009"/><path d="M404.522 114.646zm-77.61-.383v.392h78.974v-.383l-78.974-.009m79.843-.029zm-80.741-.383v.391h82.16v-.383l-82.16-.008"/></g><path d="M232.07 462.6h19.954v28.965H232.07z" fill="gray" fill-rule="evenodd"/><path d="M234.64 464.54h17.379v25.103H234.64z" fill="#ffc500" fill-rule="evenodd"/><path d="M237.86 469.68h11.586v17.379H237.86z" fill="gray" fill-rule="evenodd"/><path d="M240.44 471.62h7.08v13.517h-7.08z" fill="#d61517" fill-rule="evenodd"/><g fill-rule="evenodd" stroke-width="1pt"><path d="M231.443 474.208h7.724v9.011h-7.724z" fill="gray"/><path d="M231.443 476.134h8.367v5.15h-8.367z" fill="#d61517"/></g><g fill-rule="evenodd" stroke-width="1pt"><path d="M261.382 502.994h-9.656v-75.312h9.656z" fill="gray"/><path d="M259.445 501.068h-5.793v-71.45h5.793z" fill="#ffc500"/></g><path d="M283.112 407.475l-4.69 4.442-25.197-23.854 4.69-4.442z" fill="gray" fill-rule="evenodd"/><path d="M261.015 432.113l-4.433-4.854 21.935-24.018 4.433 4.855z" fill="gray" fill-rule="evenodd"/><path d="M254.326 388.39l3.834-3.676 23.857 22.875-3.834 3.677z" fill="#ffc500" fill-rule="evenodd"/><path d="M259.698 432.207l-3.55-3.928 22.091-24.445 3.55 3.929z" fill="#ffc500" fill-rule="evenodd"/><path d="M230.869 410.55l4.433-4.357 21.936 21.557-4.434 4.357z" fill="gray" fill-rule="evenodd"/><path d="M254.871 383.839l4.799 4.655-25.773 25.005-4.798-4.656z" fill="gray" fill-rule="evenodd"/><path d="M235.311 411.494l-3.74-3.74 23.269-23.268 3.74 3.74z" fill="#ffc500" fill-rule="evenodd"/><path d="M254.14 336.22h5.149v62.156h-5.149z" fill="gray" fill-rule="evenodd"/><path d="M255.01 337.05h3.54v60.114h-3.54zm-24.578 71.912l3.992-3.991 24.837 24.837-3.992 3.991z" fill="#ffc500" fill-rule="evenodd"/><g fill="#a11011" fill-rule="evenodd" stroke-width="1pt" transform="matrix(1.3111 0 0 1.0558 -279.63 -7.672)"><path d="M477.98 275.98h34.57v44.301h-34.57z"/><rect height="36.596" ry="18.298" width="34.311" x="478.13" y="258.3"/></g><g fill="#d61517" fill-rule="evenodd" stroke-width="1pt" transform="matrix(1.2413 0 0 1.0195 -244.64 3.97)"><path d="M477.98 275.98h34.57v44.301h-34.57z"/><rect height="36.596" ry="18.298" width="34.311" x="478.13" y="258.3"/></g><g fill="#a11011" fill-rule="evenodd" stroke-width="1pt" transform="matrix(.92478 0 0 .95717 -87.879 23.926)"><path d="M477.98 275.98h34.57v44.301h-34.57z"/><rect height="36.596" ry="18.298" width="34.311" x="478.13" y="258.3"/></g><path d="M355.98 289.23h28.039v40.449H355.98z" fill="#d61517" fill-rule="evenodd"/><rect fill="#d61517" fill-rule="evenodd" height="33.414" ry="16.707" width="27.829" x="356.11" y="273.09"/><g fill="#a11011" fill-rule="evenodd" stroke-width="1pt" transform="matrix(1.3484 0 0 1.0558 -412.97 -8.717)"><path d="M477.98 275.98h34.57v44.301h-34.57z"/><rect height="36.596" ry="18.298" width="34.311" x="478.13" y="258.3"/></g><g fill="#d61517" fill-rule="evenodd" stroke-width="1pt" transform="matrix(1.2766 0 0 1.0195 -376.99 2.924)"><path d="M477.98 275.98h34.57v44.301h-34.57z"/><rect height="36.596" ry="18.298" width="34.311" x="478.13" y="258.3"/></g><g fill="#a11011" fill-rule="evenodd" stroke-width="1pt" transform="matrix(.95104 0 0 .95717 -215.77 22.881)"><path d="M477.98 275.98h34.57v44.301h-34.57z"/><rect height="36.596" ry="18.298" width="34.311" x="478.13" y="258.3"/></g><g fill="#d61517" fill-rule="evenodd" stroke-width="1pt" transform="matrix(.83413 0 0 .91304 -158 36.213)"><path d="M477.98 275.98h34.57v44.301h-34.57z"/><rect height="36.596" ry="18.298" width="34.311" x="478.13" y="258.3"/></g><g fill="#a11011" fill-rule="evenodd" stroke-width="1pt" transform="matrix(1.3298 0 0 1.0558 -515.42 -8.556)"><path d="M477.98 275.98h34.57v44.301h-34.57z"/><rect height="36.596" ry="18.298" width="34.311" x="478.13" y="258.3"/></g><g fill="#d61517" fill-rule="evenodd" stroke-width="1pt" transform="matrix(1.2589 0 0 1.0195 -479.94 3.085)"><path d="M477.98 275.98h34.57v44.301h-34.57z"/><rect height="36.596" ry="18.298" width="34.311" x="478.13" y="258.3"/></g><g fill="#a11011" fill-rule="evenodd" stroke-width="1pt" transform="matrix(.93791 0 0 .95717 -320.95 23.042)"><path d="M477.98 275.98h34.57v44.301h-34.57z"/><rect height="36.596" ry="18.298" width="34.311" x="478.13" y="258.3"/></g><g fill="#d61517" fill-rule="evenodd" stroke-width="1pt" transform="matrix(.82261 0 0 .91304 -263.97 36.374)"><path d="M477.98 275.98h34.57v44.301h-34.57z"/><rect height="36.596" ry="18.298" width="34.311" x="478.13" y="258.3"/></g><path d="M233.03 322.27v2.312h6.294v-2.312h-6.294zm-111.84-1.61v2.312h6.294v-2.312h-6.294zm0-17.22v2.312h6.294v-2.312h-6.294zm.16-16.25v2.312h6.294v-2.312h-6.294zm38.3 34.11v2.312h6.294V321.3h-6.294zm-.16-17.38v2.312h6.294v-2.312h-6.294zm-.48-16.41v2.312h6.294v-2.312h-6.294zm83.08-9.48l1.635-1.635-4.45-4.45-1.635 1.635 4.45 4.45zm29.07 44.08v2.312h6.294v-2.312h-6.294zm-37.97-18.51v2.312h6.294V303.6h-6.294zm-.48-16.57v2.312h6.294v-2.312h-6.294zm38.45 16.89v2.312h6.294v-2.312h-6.294zm.33-17.7v2.312h6.294v-2.312h-6.294zm76.75 36.69v2.312h6.294v-2.312h-6.294zm0-19.31v2.312h6.294V303.6h-6.294zm.16-18.34v2.312h6.294v-2.312H348.4zm37.18 37.81v2.312h6.294v-2.312h-6.294zm-.16-19.31v2.312h6.294v-2.312h-6.294zm.16-17.86v2.312h6.294V285.9h-6.294z" fill="#a11011"/><g fill="#a11011" fill-rule="evenodd" stroke-width="1pt" transform="matrix(.55913 0 0 .46281 88.214 34.398)"><path d="M477.98 275.98h34.57v44.301h-34.57z"/><rect height="36.596" ry="18.298" width="34.311" x="478.13" y="258.3"/></g><g fill="#d61517" fill-rule="evenodd" stroke-width="1pt" transform="matrix(.52936 0 0 .44688 103.13 39.501)"><path d="M477.98 275.98h34.57v44.301h-34.57z"/><rect height="36.596" ry="18.298" width="34.311" x="478.13" y="258.3"/></g><g fill="#a11011" fill-rule="evenodd" stroke-width="1pt" transform="matrix(.39437 0 0 .41957 169.98 48.249)"><path d="M477.98 275.98h34.57v44.301h-34.57z"/><rect height="36.596" ry="18.298" width="34.311" x="478.13" y="258.3"/></g><g fill="#d61517" fill-rule="evenodd" stroke-width="1pt" transform="matrix(.34589 0 0 .40022 193.94 54.093)"><path d="M477.98 275.98h34.57v44.301h-34.57z"/><rect height="36.596" ry="18.298" width="34.311" x="478.13" y="258.3"/></g><path d="M371.21 265.24h-2.312v6.294h2.312v-6.294zm-97.88 8.82l-1.635-1.635-4.45 4.45 1.635 1.635 4.45-4.45zm113.13-.16l-1.635-1.635-4.45 4.45 1.635 1.635 4.45-4.45zm-28.19 4.29l1.635-1.635-4.45-4.45-1.635 1.635 4.45 4.45zm-228.9-7.53l-1.635 1.635 4.45 4.45 1.635-1.635-4.45-4.45zm127.11-5.9h-2.312v6.294h2.312v-6.294zm-114.15 7.26h2.312v-6.294h-2.312v6.294zm12.44 4.21l1.635 1.635 4.45-4.45-1.635-1.635-4.45 4.45zm203.86-100.37v7.006h22.902v-7.006H358.63z" fill="#a11011"/><path d="M359.37 177.09v5.325h21.354v-5.325H359.37z" fill="#d61517"/><g fill-rule="evenodd" stroke-width="1pt"><g fill="#a11011" transform="matrix(.6321 0 0 .4764 -58.145 30.371)"><path d="M477.98 275.98h34.57v44.301h-34.57z"/><rect height="36.596" ry="18.298" width="34.311" x="478.13" y="258.3"/></g><g fill="#d61517" transform="matrix(.59843 0 0 .45998 -41.285 35.623)"><path d="M477.98 275.98h34.57v44.301h-34.57z"/><rect height="36.596" ry="18.298" width="34.311" x="478.13" y="258.3"/></g><g fill="#a11011" transform="matrix(.44583 0 0 .43188 34.289 44.635)"><path d="M477.98 275.98h34.57v44.301h-34.57z"/><rect height="36.596" ry="18.298" width="34.311" x="478.13" y="258.3"/></g><g fill="#d61517" transform="matrix(.39102 0 0 .41196 61.375 50.65)"><path d="M477.98 275.98h34.57v44.301h-34.57z"/><rect height="36.596" ry="18.298" width="34.311" x="478.13" y="258.3"/></g></g><path d="M244.32 176.14v7.006h25.424v-7.006H244.32z" fill="#a11011"/><path d="M244.6 177.55v5.325h24.023v-5.325H244.6z" fill="#d61517"/><g fill-rule="evenodd" stroke-width="1pt"><g fill="#a11011" transform="matrix(.6321 0 0 .4764 -169.935 30.371)"><path d="M477.98 275.98h34.57v44.301h-34.57z"/><rect height="36.596" ry="18.298" width="34.311" x="478.13" y="258.3"/></g><g fill="#d61517" transform="matrix(.59843 0 0 .45998 -153.075 35.623)"><path d="M477.98 275.98h34.57v44.301h-34.57z"/><rect height="36.596" ry="18.298" width="34.311" x="478.13" y="258.3"/></g><g fill="#a11011" transform="matrix(.44583 0 0 .43188 -77.501 44.635)"><path d="M477.98 275.98h34.57v44.301h-34.57z"/><rect height="36.596" ry="18.298" width="34.311" x="478.13" y="258.3"/></g><g fill="#d61517" transform="matrix(.39102 0 0 .41196 -50.415 50.65)"><path d="M477.98 275.98h34.57v44.301h-34.57z"/><rect height="36.596" ry="18.298" width="34.311" x="478.13" y="258.3"/></g></g><path d="M128.32 173.9v8.407h22.342V173.9H128.32z" fill="#a11011"/><path d="M149.29 182.59zm-19.458-7.482v7.645h19.803v-7.482l-19.803-.163" fill="#d61517"/></g></svg>