<svg xmlns="http://www.w3.org/2000/svg" viewBox="0 0 640 480"><defs><clipPath clipPathUnits="userSpaceOnUse" id="a"><path d="M-85.333 0h682.67v512h-682.67z" fill-opacity=".67"/></clipPath></defs><g clip-path="url(#a)" fill-rule="evenodd" stroke-width="1pt"><path d="M-226.62 139.08h993.54v216.28h-993.54z" fill="#fff"/><path d="M765.11 512h-989.67V339.13h989.67zm2.42-343.9h-994.15V0h994.15zm-508.223 92.619l-19.629-13.515 24.443-.096 7.787-22.082 7.28 22.009 24.444-.136-19.944 13.7 7.318 22-19.607-13.541-19.92 13.73zm142.943 36.8l-19.628-13.515 24.443-.096 7.787-22.082 7.28 22.009 24.444-.136-19.944 13.7 7.318 22-19.607-13.541-19.92 13.73zm0-76.43l-19.628-13.515 24.443-.096 7.787-22.082 7.28 22.009 24.444-.136-19.944 13.7 7.318 22-19.607-13.541-19.92 13.73zm-315.612 76.43l-19.629-13.515 24.443-.096 7.787-22.082 7.28 22.009 24.444-.136-19.944 13.7 7.318 22-19.607-13.541-19.92 13.73zm0-76.43l-19.629-13.515 24.443-.096 7.787-22.082 7.28 22.009 24.444-.136-19.944 13.7 7.318 22-19.607-13.541-19.92 13.73z" fill="#087bce"/></g></svg>