<svg xmlns="http://www.w3.org/2000/svg" viewBox="0 0 640 480"><defs><clipPath clipPathUnits="userSpaceOnUse" id="a"><path d="M-87.62 0h682.67v512H-87.62z" fill-opacity=".67"/></clipPath></defs><g clip-path="url(#a)" fill-rule="evenodd" transform="translate(82.144) scale(.9375)"><path d="M619.43 512H-112V0h731.43z" fill="#fff"/><path d="M619.43 115.23H-112V48.003h731.43zm0 350.45H-112v-67.227h731.43zm-483-274.9l110.12 191.54 112.49-190.75-222.61-.79z" fill="#00c"/><path d="M225.75 317.81l20.95 35.506 21.4-35.36-42.351-.145z" fill="#fff"/><path d="M136.02 320.58l110.13-191.54 112.48 190.75-222.61.79z" fill="#00c"/><path d="M225.75 191.61l20.95-35.506 21.4 35.36-42.351.145zm-43.78 79.5l-21.64 35.982 40.899-.127-19.258-35.855zm-21.27-66.5l41.225.29-19.834 36.261-21.391-36.55zm151.24 66.91l20.829 35.576-41.71-.533 20.881-35.043zm20.45-66.91l-41.225.29 19.834 36.261 21.391-36.55zm-114.27-.04l-28.394 51.515 28.799 50.297 52.731 1.217 32.044-51.514-29.611-51.92-55.571.405z" fill="#fff"/></g></svg>