<svg xmlns="http://www.w3.org/2000/svg" viewBox="0 0 640 480"><defs><clipPath clipPathUnits="userSpaceOnUse" id="a"><path d="M-85.333 0h682.67v512h-682.67z" fill-opacity=".67"/></clipPath></defs><g clip-path="url(#a)" fill-rule="evenodd" transform="translate(80) scale(.9375)"><path d="M-128 0h768v512h-768z" fill="#1b0073"/><path d="M-128 128h768v256h-768z" fill="#e60006"/><g fill="#fff" stroke="#e60000"><path d="M93.251 248.065h325.473v52.63H93.251z" stroke-width="1.208"/><path d="M220 280l-5 15h320l-5-15H220z" stroke-width="1.25" transform="matrix(1.0514 0 0 .82556 -138.285 69.541)"/><path d="M245 280l-5 15h60l-5-15h-50z" stroke-width="1.123" transform="matrix(1.27557 0 0 .82556 37.621 69.542)"/><path d="M245 280l-5 15h60l-5-15h-50z" stroke-width="1.52" transform="matrix(.64243 0 0 .82556 211.19 69.542)"/><path d="M245 280l-5 15h60l-5-15h-50z" stroke-width="2.024" transform="matrix(.4152 0 0 .82556 272.558 69.542)"/><path d="M245 280l-5 15h60l-5-15h-50z" stroke-width="1.098" transform="matrix(1.3409 0 0 .82556 -106.058 69.541)"/><path d="M91.424 247.27h329.137v12.384H91.424z" stroke-width="1.306"/><path d="M349.646 248.179h64.506v52.422h-64.506z" stroke-width="1.229"/><path d="M395.79 272.745h6.451v27.852h-6.45zm-28.382 0h6.45v27.852h-6.45z" stroke-width=".831"/><path d="M245 280l-5 15h60l-5-15h-50z" stroke-width="1.554" transform="matrix(.67356 0 0 .82556 73.91 69.541)"/><path d="M245 280l-5 15h60l-5-15h-50z" stroke-width="1.956" transform="matrix(.42245 0 0 .82556 141.925 69.541)"/><path d="M221.675 248.065h67.968v52.63h-67.968z" stroke-width="1.264"/><path d="M275.83 272.74h6.45v27.853h-6.45zm-44.886-.002h6.454v27.852h-6.454z" stroke-width="1.073"/><path d="M239.53 235.33h32.914v65.352h-32.913z" stroke-width=".98"/><path d="M264.219 272.739h6.45v27.852h-6.45zm-21.664.001h6.455v27.852h-6.455z" stroke-width="1.073"/><path d="M358.18 217.13l13.471 22.98 14.264-22.98H358.18z" stroke-width="1pt" transform="matrix(1.0321 0 0 .87371 -128 56.123)"/><path d="M375.242 248.065h18.285v65.012h-18.285z" stroke-width="1.217"/><path d="M378.286 248.065h12.178v65.012h-12.178z" stroke-width="1.216"/><path d="M245 280l-5 15h60l-5-15h-50z" stroke-width="1.123" transform="matrix(1.27568 0 0 .82556 -215.159 69.542)"/><path d="M245 280l-5 15h60l-5-15h-50z" stroke-width="1.637" transform="matrix(.59975 0 0 .82556 -34.228 69.542)"/><path d="M245 280l-5 15h60l-5-15h-50z" stroke-width="2.049" transform="matrix(.38267 0 0 .82556 24.297 69.542)"/><path d="M96.905 248.065h63.998v52.63H96.905z" stroke-width="1.227"/><path d="M109.383 272.747h6.45V300.6h-6.45zm29.673.001h6.45V300.6h-6.45z" stroke-width=".831"/><path d="M118.847 248.065h18.286v65.012h-18.286z" stroke-width="1.217"/><path d="M121.882 248.065h12.177v65.012h-12.177z" stroke-width="1.216"/><path d="M87.77 235.68h336.445v12.383H87.77z" stroke-width="1.32"/><g><path d="M187.5 328.56h406.25v17.5H187.5z" stroke-width="1pt" transform="matrix(1.0802 0 0 .9098 -165.977 50.86)"/><path d="M226.25 284.81h327.5v17.5h-327.5z" stroke-width="1.197" transform="matrix(1.0802 0 0 .9098 -165.977 50.86)"/><path d="M221.25 288.56h337.5v17.5h-337.5z" stroke-width="1.215" transform="matrix(1.0802 0 0 .9098 -165.977 50.86)"/><path d="M187.5 328.56h406.25v17.5H187.5z" stroke-width="1pt" transform="matrix(1.0802 0 0 .9098 -165.977 50.86)"/><path d="M212.5 298.56h356.25v17.5H212.5z" stroke-width="1.249" transform="matrix(1.0802 0 0 .9098 -165.977 50.86)"/><path d="M200 311.06h381.25v17.5H200z" stroke-width="1.292" transform="matrix(1.0802 0 0 .9098 -165.977 50.86)"/><path d="M287.5 283.56h18.75v62.5H287.5z" stroke-width="1.373" transform="matrix(.97521 0 0 .89163 -161.523 57.156)"/><path d="M290.62 283.56h12.5v62.5h-12.5z" stroke-width="1.121" transform="matrix(.97521 0 0 .89163 -161.523 57.156)"/><g><path d="M287.5 283.56h18.75v62.5H287.5z" stroke-width="1.373" transform="matrix(.97521 0 0 .89163 94.47 57.156)"/><path d="M290.62 283.56h12.5v62.5h-12.5z" stroke-width="1.121" transform="matrix(.97521 0 0 .89163 94.47 57.156)"/></g></g><path d="M249.233 248.065h14.696v117.64h-14.696z" stroke-width="1.24"/><g><path d="M217.92 220.3l.184-36.915s3.362 7.236 29.512 8.821c24.749-.937 28.848-5.362 29.969-9.284l-1.025 37.515-58.64-.137z" stroke-width="1pt" transform="matrix(.97394 0 0 .87371 141.574 56.123)"/><path d="M330.92 208.56l-18.42-20.45c6.141-5.303 17.543 3.789 17.543 3.789s6.14-23.485 32.457-33.334c26.316 9.849 32.456 33.334 32.456 33.334s11.403-9.092 17.544-3.789l-18.422 20.455h-63.157z" stroke-width="3.528" transform="matrix(.428 0 0 .30959 228.657 146.27)"/><path d="M330.92 208.56l-18.42-20.45c6.141-5.303 17.543 3.789 17.543 3.789s6.14-23.485 32.457-33.334c26.316 9.849 32.456 33.334 32.456 33.334s11.403-9.092 17.544-3.789l-18.422 20.455h-63.157z" stroke-width="2.615" transform="matrix(.55638 0 0 .43342 182.114 136.848)"/><path d="M0 280.52c.792 0 30.112 52.301 0 53.093-30.112.793 0-51.508 0-53.093z" stroke-width="3.383" transform="matrix(.40719 0 0 .40808 383.966 46.902)"/><path d="M330.92 208.56l-18.42-20.45c6.141-5.303 17.543 3.789 17.543 3.789s6.14-23.485 32.457-33.334c26.316 9.849 32.456 33.334 32.456 33.334s11.403-9.092 17.544-3.789l-18.422 20.455h-63.157z" stroke-width="5.963" transform="matrix(.32914 0 0 .16252 264.684 154.57)"/><path d="M330.92 208.56l-.878-16.666s6.14-23.485 32.457-33.334c26.316 9.849 32.456 33.334 32.456 33.334l-.878 16.666H330.92z" stroke-width="8.321" transform="matrix(.16902 0 0 .16252 322.73 157.278)"/><path d="M330.92 208.56l-.878-16.666s6.14-23.485 32.457-33.334c26.316 9.849 32.456 33.334 32.456 33.334l-.878 16.666H330.92z" stroke-width="5.096" transform="matrix(.33803 0 0 .2167 261.461 154.105)"/><path d="M330.92 208.56l-.878-16.666s6.14-23.485 32.457-33.334c26.316 9.849 32.456 33.334 32.456 33.334l-.878 16.666H330.92z" stroke-width="5.096" transform="matrix(.33803 0 0 .2167 261.461 159.523)"/><path d="M330.92 208.56l-18.42-20.45c6.141-5.303 17.543 3.789 17.543 3.789s6.14-23.485 32.457-33.334c26.316 9.849 32.456 33.334 32.456 33.334s11.403-9.092 17.544-3.789l-18.422 20.455h-63.157z" stroke-width="3.651" transform="matrix(.3291 0 0 .4334 264.684 130.58)"/><path d="M330.92 208.56l-18.42-20.45c6.141-5.303 17.543 3.789 17.543 3.789s6.14-23.485 32.457-33.334c26.316 9.849 32.456 33.334 32.456 33.334s11.403-9.092 17.544-3.789l-18.422 20.455h-63.157z" stroke-width="3.651" transform="matrix(.3291 0 0 .4334 264.684 141.415)"/><path d="M330.92 208.56l-.878-16.666s6.14-23.485 32.457-33.334c26.316 9.849 32.456 33.334 32.456 33.334l-.878 16.666H330.92z" stroke-width="3.223" transform="matrix(.33803 0 0 .54176 261.461 135.069)"/><path d="M330.92 208.56l-18.42-20.45c6.141-5.303 17.543 3.789 17.543 3.789s6.14-23.485 32.457-33.334c26.316 9.849 32.456 33.334 32.456 33.334s11.403-9.092 17.544-3.789l-18.422 20.455h-63.157z" stroke-width="4.216" transform="matrix(.32914 0 0 .32505 264.684 180.265)"/></g><g><path d="M330.92 208.56l-18.42-20.45c6.141-5.303 17.543 3.789 17.543 3.789s6.14-23.485 32.457-33.334c26.316 9.849 32.456 33.334 32.456 33.334s11.403-9.092 17.544-3.789l-18.422 20.455h-63.157z" stroke-width="3.528" transform="matrix(.428 0 0 .30959 -26.964 143.958)"/><path d="M330.92 208.56l-18.42-20.45c6.141-5.303 17.543 3.789 17.543 3.789s6.14-23.485 32.457-33.334c26.316 9.849 32.456 33.334 32.456 33.334s11.403-9.092 17.544-3.789l-18.422 20.455h-63.157z" stroke-width="2.615" transform="matrix(.55638 0 0 .43342 -73.507 134.534)"/><path d="M217.92 220.3l.184-36.915s3.362 7.236 29.512 8.821c24.749-.937 28.848-5.362 29.969-9.284l-1.025 37.515-58.64-.137z" stroke-width="1pt" transform="matrix(.97394 0 0 .87371 -111.857 56.123)"/><path d="M0 280.52c.792 0 30.112 52.301 0 53.093-30.112.793 0-51.508 0-53.093z" stroke-width="3.383" transform="matrix(.40719 0 0 .40808 127.97 46.902)"/><path d="M330.92 208.56l-18.42-20.45c6.141-5.303 17.543 3.789 17.543 3.789s6.14-23.485 32.457-33.334c26.316 9.849 32.456 33.334 32.456 33.334s11.403-9.092 17.544-3.789l-18.422 20.455h-63.157z" stroke-width="5.963" transform="matrix(.32914 0 0 .16252 8.688 154.57)"/><path d="M330.92 208.56l-.878-16.666s6.14-23.485 32.457-33.334c26.316 9.849 32.456 33.334 32.456 33.334l-.878 16.666H330.92z" stroke-width="8.321" transform="matrix(.16902 0 0 .16252 66.734 157.278)"/><path d="M330.92 208.56l-.878-16.666s6.14-23.485 32.457-33.334c26.316 9.849 32.456 33.334 32.456 33.334l-.878 16.666H330.92z" stroke-width="5.096" transform="matrix(.33803 0 0 .2167 5.466 154.105)"/><path d="M330.92 208.56l-.878-16.666s6.14-23.485 32.457-33.334c26.316 9.849 32.456 33.334 32.456 33.334l-.878 16.666H330.92z" stroke-width="5.096" transform="matrix(.33803 0 0 .2167 5.466 159.523)"/><path d="M330.92 208.56l-18.42-20.45c6.141-5.303 17.543 3.789 17.543 3.789s6.14-23.485 32.457-33.334c26.316 9.849 32.456 33.334 32.456 33.334s11.403-9.092 17.544-3.789l-18.422 20.455h-63.157z" stroke-width="3.651" transform="matrix(.3291 0 0 .4334 8.688 130.58)"/><path d="M330.92 208.56l-18.42-20.45c6.141-5.303 17.543 3.789 17.543 3.789s6.14-23.485 32.457-33.334c26.316 9.849 32.456 33.334 32.456 33.334s11.403-9.092 17.544-3.789l-18.422 20.455h-63.157z" stroke-width="3.651" transform="matrix(.3291 0 0 .4334 8.688 141.415)"/><path d="M330.92 208.56l-.878-16.666s6.14-23.485 32.457-33.334c26.316 9.849 32.456 33.334 32.456 33.334l-.878 16.666H330.92z" stroke-width="3.223" transform="matrix(.33803 0 0 .54176 5.466 135.069)"/><path d="M330.92 208.56l-18.42-20.45c6.141-5.303 17.543 3.789 17.543 3.789s6.14-23.485 32.457-33.334c26.316 9.849 32.456 33.334 32.456 33.334s11.403-9.092 17.544-3.789l-18.422 20.455h-63.157z" stroke-width="4.216" transform="matrix(.32914 0 0 .32505 8.688 180.265)"/></g><g transform="translate(-128) scale(1.0321)"><rect height="12.898" ry="6.449" stroke-width="1.226" width="85.039" x="329.53" y="226.28"/><path d="M353.24-212.6l1.093-56.693s-3.28 13.906-13.123 13.906H190.29c-9.843 0-13.124-13.906-13.124-13.906l1.093 56.693h174.98z" stroke-width="1.579" transform="matrix(.5 0 0 .75 239.17 393.31)"/><path d="M510.49 70.219l.41-25.609s23.557-2.998 20.288-9.332c-3.27-6.333-31.604 7.986-31.604 7.986h-113.34s-28.335-14.32-31.604-7.986c-3.269 6.334 20.288 9.332 20.288 9.332l.408 25.609h135.15z" stroke-width="2.4" transform="matrix(.4 0 0 .57434 194.88 174.23)"/><path d="M510.49 70.219l.41-25.609s23.557-2.998 20.288-9.332c-3.27-6.333-31.604 7.986-31.604 7.986h-113.34s-28.335-14.32-31.604-7.986c-3.269 6.334 20.288 9.332 20.288 9.332l.408 25.609h135.15z" stroke-width="2.19" transform="matrix(.48 0 0 .57434 159.45 186.23)"/><path d="M510.49 70.219l.41-25.609s23.557-2.999 20.288-9.332c-3.27-6.333-27.29-18.36-61.81-31.08-24.29-5.905 31.26-26.346-21.07-27.709-48.02.757-5.42 23.318-21.07 28.618-38.84 11.81-69.33 23.838-72.6 30.171-3.27 6.334 20.29 9.332 20.29 9.332l.408 25.61h135.15z" stroke-width="6.247" transform="matrix(.12985 0 0 .26106 314.17 134.08)"/><path d="M510.49 70.219l.41-25.609s23.557-2.998 20.288-9.332c-3.27-6.333-31.604 7.986-31.604 7.986h-113.34s-28.335-14.32-31.604-7.986c-3.269 6.334 20.288 9.332 20.288 9.332l.408 25.609h135.15z" stroke-width="3.152" transform="matrix(.28332 0 0 .46992 246.55 156.75)"/><path d="M510.49 70.219l.41-25.609s23.557-2.998 20.288-9.332c-3.27-6.333-31.604 7.986-31.604 7.986h-113.34s-28.335-14.32-31.604-7.986c-3.269 6.334 20.288 9.332 20.288 9.332l.408 25.609h135.15z" stroke-width="2.877" transform="matrix(.34 0 0 .46992 221.46 166.57)"/><path d="M510.49 70.219l.41-25.609s23.557-2.998 20.288-9.332c-3.27-6.333-31.604 7.986-31.604 7.986h-113.34s-28.335-14.32-31.604-7.986c-3.269 6.334 20.288 9.332 20.288 9.332l.408 25.609h135.15z" stroke-width="4.755" transform="matrix(.18333 0 0 .31908 290.85 149.49)"/><path d="M510.49 70.219l.41-25.609s23.557-2.998 20.288-9.332c-3.27-6.333-31.604 7.986-31.604 7.986h-113.34s-28.335-14.32-31.604-7.986c-3.269 6.334 20.288 9.332 20.288 9.332l.408 25.609h135.15z" stroke-width="4.341" transform="matrix(.22 0 0 .31908 274.61 156.16)"/><path d="M510.49 70.219l.41-25.609s23.557-2.998 20.288-9.332c-3.27-6.333-31.604 7.986-31.604 7.986h-113.34s-28.335-14.32-31.604-7.986c-3.269 6.334 20.288 9.332 20.288 9.332l.408 25.609h135.15z" stroke-width="6.247" transform="matrix(.12985 0 0 .26106 314.53 139.78)"/><path d="M510.49 70.219l.41-25.609s23.557-2.998 20.288-9.332c-3.27-6.333-31.604 7.986-31.604 7.986h-113.34s-28.335-14.32-31.604-7.986c-3.269 6.334 20.288 9.332 20.288 9.332l.408 25.609h135.15z" stroke-width="5.702" transform="matrix(.15583 0 0 .26106 303.03 145.24)"/><path d="M330.92 208.56l-18.42-20.45c6.141-5.303 17.543 3.789 17.543 3.789s6.14-23.485 32.457-33.334c26.316 9.849 32.456 33.334 32.456 33.334s11.403-9.092 17.544-3.789l-18.422 20.455h-63.157z" stroke-width="5.444" transform="matrix(.17717 0 0 .17997 307.82 126.336)"/><path d="M330.92 208.56l-18.42-20.45c6.141-5.303 17.543 3.789 17.543 3.789s6.14-23.485 32.457-33.334c26.316 9.849 32.456 33.334 32.456 33.334s11.403-9.092 17.544-3.789l-18.422 20.455h-63.157z" stroke-width="5.444" transform="matrix(.24803 0 0 .17997 282.14 132.335)"/><path d="M330.92 208.56l-18.42-20.45c6.141-5.303 17.543 3.789 17.543 3.789s6.14-23.485 32.457-33.334c26.316 9.849 32.456 33.334 32.456 33.334s11.403-9.092 17.544-3.789l-18.422 20.455h-63.157z" stroke-width="4.41" transform="matrix(.28346 0 0 .23996 269.29 130.316)"/><path d="M330.92 208.56l-18.42-20.45c6.141-5.303 17.543 3.789 17.543 3.789s6.14-23.485 32.457-33.334c26.316 9.849 32.456 33.334 32.456 33.334s11.403-9.092 17.544-3.789l-18.422 20.455h-63.157z" stroke-width="3.528" transform="matrix(.35433 0 0 .29995 243.6 130.697)"/><path d="M358.18 217.13l13.471 22.98 14.264-22.98H358.18z" stroke-width="1.458" transform="matrix(.92308 0 0 .67386 28.619 57.554)"/><path d="M330.92 208.56l-18.42-20.45c6.141-5.303 17.543 3.789 17.543 3.789s6.14-23.485 32.457-33.334c26.316 9.849 32.456 33.334 32.456 33.334s11.403-9.092 17.544-3.789l-18.422 20.455h-63.157z" stroke-width="3.051" transform="matrix(.4252 0 0 .33427 217.91 135.867)"/><path d="M358.18 217.13l13.471 22.98 14.264-22.98H358.18z" stroke-width="1.25" transform="matrix(1 0 0 .84654 0 37.089)"/><path d="M330.92 208.56l-18.42-20.45c6.141-5.303 17.543 3.789 17.543 3.789s6.14-23.485 32.457-33.334c26.316 9.849 32.456 33.334 32.456 33.334s11.403-9.092 17.544-3.789l-18.422 20.455h-63.157z" stroke-width="2.615" transform="matrix(.46063 0 0 .41993 205.07 135.488)"/><path d="M330.92 208.56l-18.42-20.45c6.141-5.303 17.543 3.789 17.543 3.789s6.14-23.485 32.457-33.334c26.316 9.849 32.456 33.334 32.456 33.334s11.403-9.092 17.544-3.789l-18.422 20.455h-63.157z" stroke-width="2.615" transform="matrix(.46063 0 0 .41993 205.07 152.762)"/></g><g stroke-width="1.04"><path d="M166.5 272.743h6.45v27.852h-6.45zm21.932-.003h6.45v27.853h-6.45zm-10.322 0h6.451v27.852h-6.45zm117.195.002h6.451v27.852h-6.45zm43.865-.002h6.45v27.852h-6.45zm-21.932-.001h6.45v27.852h-6.45zm-10.321-.001h6.45v27.852h-6.45zm20.642 0h6.45v27.852h-6.45zm-117.195.004h6.45v27.852h-6.45zm-11.611-.002h6.45v27.852h-6.45z" stroke-width="1.073"/></g></g></g></svg>